Coordinates
version=1
nRows=4
nColumns=40
inDegrees=yes

Units are S.I. units (second, meters, Newtons, ...)
If the header above contains a line with 'inDegrees', this indicates whether rotational values are in degrees (yes) or radians (no).

endheader
time	pelvis_tilt	pelvis_list	pelvis_rotation	pelvis_tx	pelvis_ty	pelvis_tz	hip_flexion_r	hip_adduction_r	hip_rotation_r	knee_angle_r	knee_angle_r_beta	ankle_angle_r	subtalar_angle_r	mtp_angle_r	hip_flexion_l	hip_adduction_l	hip_rotation_l	knee_angle_l	knee_angle_l_beta	ankle_angle_l	subtalar_angle_l	mtp_angle_l	lumbar_extension	lumbar_bending	lumbar_rotation	arm_flex_r	arm_add_r	arm_rot_r	elbow_flex_r	pro_sup_r	wrist_flex_r	wrist_dev_r	arm_flex_l	arm_add_l	arm_rot_l	elbow_flex_l	pro_sup_l	wrist_flex_l	wrist_dev_l
     17.39999999999999857891	     38.75176245980752298692	    -11.87357038157978550430	    179.37228833519480986070	      0.34437749630193037476	      0.69310621118483306535	     -0.60765941464156392193	    101.04797853039616484239	     -6.67705567809643518729	     12.33975826783826512667	     80.28918629258534167548	      1.40131065455271341946	     19.53625953872757747831	      0.00000000000000000000	      0.00000000000000000000	     93.84272640511294127919	     -6.88108642067220888094	    -10.61460541641875821028	     78.34843067830317409062	      1.36743807910692471985	     22.43177595364230469954	      0.00000000000000000000	      0.00000000000000000000	    -33.73711703512210391409	    -10.46931675912021297847	     -7.11073417146567177127	     55.30274273147908559167	    -11.73701518779164842954	     43.31494133907248311743	      9.99576855446622936086	      5.55928879927573049713	      0.00000000000000000000	      0.00000000000000000000	     62.13486964793535349827	    -18.02436165460921557724	     37.36533530018833459962	     15.61445560214120575893	     87.78516473161043620621	      0.00000000000000000000	      0.00000000000000000000
     17.40500000000000113687	     38.81855866008236688458	    -11.87271575540615309308	    179.36677339095422212267	      0.34420517172244208259	      0.69400687821765072449	     -0.60750858495731308029	    101.01194696747708690054	     -6.77746429402415717647	     12.22101195933815809269	     80.10670822913181154945	      1.39812581153278636670	     19.41836652656121131599	      0.00000000000000000000	      0.00000000000000000000	     93.79086213159550311502	     -6.89510864404698775587	    -10.68378323427780429711	     78.18265235068429319654	      1.36454470146152528898	     22.35780249854655465924	      0.00000000000000000000	      0.00000000000000000000	    -33.71388759696741033167	    -10.44607413066468382112	     -7.11240479590634233631	     55.31468165137668790976	    -11.74298267250378025039	     43.28124550626896649419	     10.03053973000276677396	      5.56971544267862661570	      0.00000000000000000000	      0.00000000000000000000	     62.14352309419503939125	    -18.00473527033868492708	     37.36899937773147684084	     15.56278766511507960502	     87.77928582720291217356	      0.00000000000000000000	      0.00000000000000000000
     17.41000000000000014211	     38.92346940723997050782	    -11.86380330837010710354	    179.39074256492281733699	      0.34425667000579157628	      0.69509782782890183750	     -0.60740647305248351984	    100.98314273969936039066	     -6.74720559605871006426	     12.24949447867472152041	     79.90105405991796772014	      1.39453646915955120633	     19.27823140570293247720	      0.00000000000000000000	      0.00000000000000000000	     93.75057747389818985084	     -7.04349284678978904140	    -10.85718552906545397718	     78.02757347034605572844	      1.36183806439931687216	     22.06121144186535687481	      0.00000000000000000000	      0.00000000000000000000	    -33.68614109327349837031	    -10.40281373217244897944	     -7.12956532343098459137	     55.34337049585322887424	    -11.73551563192352809040	     43.22433554750442397108	     10.05535454583257326533	      5.57156613906438824557	      0.00000000000000000000	      0.00000000000000000000	     62.17570587469391085733	    -17.97006957589271181064	     37.28706417642750636787	     15.51281098734338748102	     87.76912112988341618802	      0.00000000000000000000	      0.00000000000000000000
     17.41499999999999914735	     39.01993690315391205559	    -11.87954405898647713968	    179.36607255563058060943	      0.34424266451736051931	      0.69613177899928402326	     -0.60730345337523072846	    100.92867462012094392776	     -6.74954506930287223554	     12.22989217573035602982	     79.64423033719438649314	      1.39005404960079581578	     19.12835582840148873629	      0.00000000000000000000	      0.00000000000000000000	     93.70448385663200951967	     -7.06616884734987493744	    -10.93107936749600739290	     77.80565120093964992520	      1.35796479011467718934	     21.97108489734106129276	      0.00000000000000000000	      0.00000000000000000000	    -33.64895873180471141950	    -10.40344867501499237505	     -7.11242660659613434859	     55.37301181710359543331	    -11.74948480896786229266	     43.17147968533940627367	     10.06343421851926756005	      5.57167865026432007625	      0.00000000000000000000	      0.00000000000000000000	     62.18116372714328576876	    -17.94679064971959192576	     37.24747402022064335370	     15.50389459931381885838	     87.77347160044756435582	      0.00000000000000000000	      0.00000000000000000000
